<?xml version="1.0" encoding="UTF-8"?> <svg xmlns="http://www.w3.org/2000/svg" xmlns:xlink="http://www.w3.org/1999/xlink" version="1.1" id="Layer_1" x="0px" y="0px" viewBox="0 0 1101.06 220.5" style="enable-background:new 0 0 1101.06 220.5;" xml:space="preserve"> <style type="text/css"> .st0{fill:#D50037;} .st1{fill:#202944;} .st2{fill:#E3152E;} .st3{fill:#1A242D;} </style> <g> <g> <g> <g> <path class="st0" d="M201.45,143.17c0,18.22-14.77,32.98-32.98,32.98c-18.22,0-32.98-14.77-32.98-32.98s14.77-32.98,32.98-32.98 C186.68,110.19,201.45,124.96,201.45,143.17"></path> </g> <g> <path class="st0" d="M201.45,77.2c0,18.22-14.77,32.98-32.98,32.98c-18.22,0-32.98-14.77-32.98-32.98 c0-18.22,14.77-32.98,32.98-32.98C186.68,44.22,201.45,58.99,201.45,77.2"></path> </g> <g> <path class="st0" d="M135.48,77.2c0-18.22-14.77-32.98-32.98-32.98c-18.22,0-32.98,14.77-32.98,32.98v65.97 c0,18.22,14.77,32.99,32.98,32.99c18.22,0,32.98-14.77,32.98-32.99V77.2z"></path> </g> </g> <g> <path class="st1" d="M652.6,152.38V68.55h23.59l23.47,74.61l23.59-74.61h23.71v83.83H733.2V80.17l-22.75,72.21h-21.56 l-22.51-71.73v71.73H652.6z"></path> <path class="st1" d="M788.65,153.34c-9.02,0-16.71-3.23-23.05-9.7c-6.35-6.47-9.52-14.17-9.52-23.11 c0-9.02,3.17-16.72,9.52-23.11c6.35-6.39,14.03-9.58,23.05-9.58c9.02,0,16.71,3.21,23.05,9.64c6.35,6.43,9.52,14.11,9.52,23.05 c0,9.02-3.19,16.75-9.58,23.17C805.25,150.13,797.59,153.34,788.65,153.34z M774.63,134.72c3.83,3.95,8.5,5.93,14.01,5.93 c5.51,0,10.18-1.98,14.01-5.93c3.83-3.95,5.75-8.68,5.75-14.19c0-5.51-1.92-10.24-5.75-14.19c-3.83-3.95-8.5-5.93-14.01-5.93 c-5.51,0-10.18,1.98-14.01,5.93c-3.83,3.95-5.75,8.68-5.75,14.19C768.89,126.03,770.8,130.76,774.63,134.72z"></path> <path class="st1" d="M829.84,152.38V88.91h13.77v8.38c4.87-6.31,11.46-9.46,19.76-9.46c7.26,0,13.51,2.34,18.74,7.01 c5.23,4.67,7.84,10.88,7.84,18.62v38.92h-13.77v-35.21c0-5.11-1.5-9.14-4.49-12.1c-2.99-2.95-6.65-4.43-10.96-4.43 c-5.03,0-9.14,1.82-12.33,5.45c-3.19,3.63-4.79,8.16-4.79,13.59v32.69H829.84z"></path> <path class="st1" d="M931.9,153.34c-9.1,0-16.81-3.21-23.11-9.64c-6.31-6.43-9.46-14.15-9.46-23.17c0-9.1,3.19-16.83,9.58-23.17 c6.39-6.35,14.05-9.52,22.99-9.52c7.9,0,14.87,2.57,20.9,7.72c6.03,5.15,9.72,11.6,11.08,19.34c0.8,3.75,0.84,7.35,0.12,10.78 h-51.02c0.8,4.71,2.95,8.44,6.47,11.2c3.51,2.75,7.66,4.13,12.46,4.13c7.34,0,13.21-2.59,17.6-7.78l12.22,3.23 c-2.56,5.11-6.63,9.2-12.22,12.27C943.92,151.8,938.05,153.34,931.9,153.34z M912.98,115.02h37.48c-0.8-4.23-2.9-7.78-6.29-10.66 c-3.39-2.87-7.53-4.31-12.4-4.31c-4.87,0-9.02,1.46-12.45,4.37C915.89,107.33,913.78,110.87,912.98,115.02z"></path> <path class="st1" d="M982.09,177.53l10.3-25.51l-26.47-63.11h14.49l18.8,47.66l17.84-47.66h14.49l-35.33,88.62H982.09z"></path> </g> </g> <g> <g> <path class="st1" d="M234.64,152.33V68.55h38.9c7.89,0,14.24,2.13,19.03,6.4c4.78,4.27,7.18,9.6,7.18,15.98 c0,3.83-0.9,7.4-2.69,10.71c-1.8,3.32-4.21,5.97-7.24,7.96c4.55,2,7.94,4.81,10.17,8.44c2.24,3.63,3.35,7.56,3.35,11.79 c0,6.46-2.41,11.83-7.24,16.09s-11.35,6.4-19.56,6.4H234.64z M251.99,103.38h20.94c2.88,0,5.21-0.92,7.01-2.75 c1.79-1.83,2.69-4.03,2.69-6.59c0-2.55-0.9-4.75-2.69-6.58c-1.8-1.83-4.13-2.75-7.01-2.75h-20.94V103.38z M251.99,136.17h23.34 c2.88,0,5.21-0.87,7.01-2.63c1.8-1.75,2.69-3.9,2.69-6.46c0-2.55-0.89-4.72-2.69-6.52c-1.8-1.8-4.13-2.69-7.01-2.69h-23.34 V136.17z"></path> </g> <g> <path class="st1" d="M313.02,152.33V68.55h60.68v16.64h-42.72v17.11h37.93v16.28h-37.93v17.11h42.72v16.64H313.02z"></path> </g> <g> <path class="st1" d="M409.14,152.33V126.6l-28.48-58.05h19.15l18.19,37.7l18.19-37.7h19.15l-28.13,57.57v26.21H409.14z"></path> </g> <g> <path class="st1" d="M523.86,141.56c-8.42,8.38-18.53,12.57-30.34,12.57c-11.81,0-21.9-4.17-30.27-12.51 c-8.38-8.33-12.57-18.41-12.57-30.22s4.19-21.9,12.57-30.28c8.38-8.38,18.46-12.57,30.27-12.57c11.81,0,21.88,4.19,30.22,12.57 c8.33,8.38,12.54,18.47,12.62,30.28C536.45,123.13,532.27,133.18,523.86,141.56z M475.74,129.83c4.75,5.03,10.67,7.54,17.77,7.54 c7.1,0,13.03-2.51,17.77-7.54c4.75-5.03,7.12-11.17,7.12-18.43c0-7.26-2.38-13.42-7.12-18.49c-4.75-5.06-10.67-7.6-17.77-7.6 c-7.02,0-12.93,2.54-17.71,7.6c-4.79,5.07-7.18,11.23-7.18,18.49C468.63,118.66,471,124.8,475.74,129.83z"></path> </g> <g> <path class="st1" d="M544.97,152.33V68.55h28.73l28.24,66.54l-0.12-66.54h17.59v83.78h-27.88l-28.96-68.7v68.7H544.97z"></path> </g> </g> </g> </svg> 