<?xml version="1.0" encoding="UTF-8"?> <svg xmlns="http://www.w3.org/2000/svg" xmlns:xlink="http://www.w3.org/1999/xlink" version="1.1" id="Layer_1" x="0px" y="0px" viewBox="0 0 1101.06 220.5" style="enable-background:new 0 0 1101.06 220.5;" xml:space="preserve"> <style type="text/css"> .st0{fill:#D50037;} .st1{fill:#202944;} .st2{fill:#E3152E;} .st3{fill:#1A242D;} </style> <g> <g> <g> <g> <g> <path class="st0" d="M132.06,143.27c0,18.23-14.78,33.02-33.02,33.02c-18.23,0-33.02-14.78-33.02-33.02 s14.78-33.02,33.02-33.02C117.28,110.25,132.06,125.03,132.06,143.27"></path> </g> <g> <path class="st0" d="M132.06,77.23c0,18.23-14.78,33.02-33.02,33.02c-18.23,0-33.02-14.78-33.02-33.02 c0-18.23,14.78-33.02,33.02-33.02C117.28,44.22,132.06,59,132.06,77.23"></path> </g> <g> <path class="st0" d="M66.03,77.23c0-18.23-14.78-33.02-33.02-33.02C14.78,44.22,0,59,0,77.23v66.03 c0,18.23,14.78,33.02,33.02,33.02c18.23,0,33.02-14.78,33.02-33.02V77.23z"></path> </g> </g> </g> <g> <g> <path class="st1" d="M165.28,152.43V68.57h38.94c7.9,0,14.25,2.14,19.05,6.41c4.79,4.27,7.19,9.6,7.19,15.99 c0,3.83-0.9,7.41-2.69,10.72c-1.8,3.32-4.21,5.98-7.25,7.97c4.55,2,7.94,4.82,10.18,8.45c2.24,3.63,3.36,7.56,3.36,11.8 c0,6.47-2.42,11.84-7.25,16.11c-4.83,4.27-11.36,6.41-19.58,6.41H165.28z M182.65,103.44h20.96c2.88,0,5.21-0.92,7.01-2.75 c1.79-1.84,2.69-4.03,2.69-6.59c0-2.56-0.9-4.75-2.69-6.59c-1.8-1.84-4.13-2.75-7.01-2.75h-20.96V103.44z M182.65,136.26h23.36 c2.88,0,5.21-0.87,7.01-2.64c1.8-1.75,2.69-3.91,2.69-6.47c0-2.56-0.9-4.73-2.69-6.53c-1.8-1.8-4.13-2.69-7.01-2.69h-23.36 V136.26z"></path> </g> <g> <path class="st1" d="M243.73,152.43V68.57h60.74v16.65h-42.76v17.13h37.97v16.29h-37.97v17.13h42.76v16.65H243.73z"></path> </g> <g> <path class="st1" d="M339.95,152.43v-25.76l-28.51-58.1h19.16l18.21,37.73l18.21-37.73h19.16l-28.15,57.62v26.23H339.95z"></path> </g> <g> <path class="st1" d="M454.77,141.65c-8.43,8.39-18.55,12.58-30.37,12.58s-21.92-4.17-30.3-12.52 c-8.39-8.34-12.59-18.42-12.59-30.24s4.19-21.92,12.59-30.31c8.39-8.39,18.48-12.58,30.3-12.58s21.9,4.19,30.25,12.58 c8.34,8.39,12.56,18.49,12.64,30.31C467.37,123.2,463.19,133.26,454.77,141.65z M406.61,129.91c4.75,5.04,10.68,7.55,17.79,7.55 s13.04-2.51,17.79-7.55c4.75-5.03,7.13-11.18,7.13-18.44s-2.38-13.44-7.13-18.51c-4.75-5.07-10.68-7.61-17.79-7.61 c-7.03,0-12.94,2.54-17.72,7.61c-4.79,5.07-7.19,11.24-7.19,18.51S401.86,124.88,406.61,129.91z"></path> </g> <g> <path class="st1" d="M475.9,152.43V68.57h28.75l28.27,66.6l-0.12-66.6h17.61v83.86H522.5l-28.99-68.76v68.76H475.9z"></path> </g> </g> </g> <g> <path class="st1" d="M618.5,153.4c-10.14,0-21.32-3.43-33.54-10.3v-14.85c11.5,7.74,22.72,11.62,33.66,11.62 c5.03,0,9.04-0.94,12.04-2.81c2.99-1.88,4.49-4.49,4.49-7.85c0-3.04-1.4-5.45-4.19-7.25c-2.8-1.8-7.11-3.41-12.94-4.85 c-10.46-2.71-17.57-5.03-21.32-6.95c-8.31-4.23-12.46-10.58-12.46-19.04c0-7.26,3.07-13.01,9.22-17.25 c6.15-4.23,13.73-6.35,22.76-6.35c11.02,0,20.96,3.2,29.82,9.58v14.85c-10.14-7.34-20.08-11.02-29.82-11.02 c-5.11,0-9.34,0.96-12.7,2.87c-3.35,1.92-5.03,4.59-5.03,8.02c0,2.08,0.96,3.85,2.88,5.33c1.92,1.48,4.01,2.6,6.29,3.35 c2.28,0.76,5.69,1.7,10.24,2.81c4.79,1.2,8.76,2.35,11.92,3.47c3.15,1.12,6.37,2.66,9.64,4.61c3.27,1.96,5.73,4.41,7.37,7.37 c1.64,2.95,2.45,6.47,2.45,10.54c0,7.59-2.89,13.5-8.68,17.73C634.81,151.28,627.44,153.4,618.5,153.4z"></path> <path class="st1" d="M689.89,153.4c-9.02,0-16.71-3.24-23.06-9.7s-9.52-14.17-9.52-23.12c0-9.02,3.17-16.73,9.52-23.12 c6.35-6.39,14.03-9.58,23.06-9.58c9.02,0,16.71,3.22,23.06,9.64c6.35,6.43,9.52,14.12,9.52,23.06c0,9.02-3.19,16.75-9.58,23.18 C706.49,150.19,698.83,153.4,689.89,153.4z M675.87,134.77c3.83,3.95,8.51,5.93,14.01,5.93s10.18-1.98,14.01-5.93 c3.83-3.95,5.75-8.68,5.75-14.19s-1.92-10.24-5.75-14.19c-3.83-3.95-8.51-5.93-14.01-5.93s-10.18,1.98-14.01,5.93 c-3.83,3.95-5.75,8.68-5.75,14.19S672.04,130.82,675.87,134.77z"></path> <path class="st1" d="M731.57,152.44V68.6h13.77v83.84H731.57z"></path> <path class="st1" d="M782.53,153.52c-7.27,0-13.52-2.35-18.74-7.07c-5.23-4.71-7.85-10.94-7.85-18.68V88.96h13.77v35.09 c0,5.03,1.52,9.04,4.55,12.04c3.03,2.99,6.71,4.49,11.02,4.49c5.03,0,9.14-1.8,12.34-5.39c3.19-3.59,4.79-8.15,4.79-13.66V88.96 h13.77v63.48h-13.77v-8.51C797.46,150.33,790.83,153.52,782.53,153.52z"></path> <path class="st1" d="M870.8,151.96c-9.82,2.72-17.89,2.32-24.19-1.2c-6.31-3.51-9.46-9.78-9.46-18.8l0.12-31.14h-11.98V88.96 h11.98l0.12-15.69h13.54v15.69h19.4v11.86h-19.4l-0.12,31.02c0,3.91,1.64,6.55,4.91,7.91c3.27,1.36,8.3,1,15.09-1.08V151.96z"></path> <path class="st1" d="M894.09,78.48c-1.76,1.72-3.87,2.58-6.35,2.58c-2.48,0-4.57-0.86-6.29-2.58c-1.72-1.72-2.58-3.81-2.58-6.29 c0-2.47,0.86-4.57,2.58-6.29c1.72-1.72,3.81-2.58,6.29-2.58c2.47,0,4.59,0.86,6.35,2.58c1.76,1.72,2.64,3.81,2.64,6.29 C896.72,74.67,895.84,76.76,894.09,78.48z M880.67,152.44V88.96h13.77v63.48H880.67z"></path> <path class="st1" d="M937.26,153.4c-9.02,0-16.71-3.24-23.06-9.7c-6.35-6.47-9.52-14.17-9.52-23.12c0-9.02,3.17-16.73,9.52-23.12 c6.35-6.39,14.03-9.58,23.06-9.58c9.02,0,16.71,3.22,23.06,9.64c6.35,6.43,9.52,14.12,9.52,23.06c0,9.02-3.19,16.75-9.58,23.18 C953.87,150.19,946.2,153.4,937.26,153.4z M923.25,134.77c3.83,3.95,8.51,5.93,14.01,5.93s10.18-1.98,14.01-5.93 c3.83-3.95,5.75-8.68,5.75-14.19s-1.92-10.24-5.75-14.19c-3.83-3.95-8.51-5.93-14.01-5.93s-10.18,1.98-14.01,5.93 c-3.83,3.95-5.75,8.68-5.75,14.19S919.42,130.82,923.25,134.77z"></path> <path class="st1" d="M978.88,152.44V88.96h13.78v8.38c4.87-6.31,11.46-9.46,19.76-9.46c7.26,0,13.51,2.34,18.75,7.01 c5.23,4.67,7.84,10.88,7.84,18.63v38.93h-13.78v-35.22c0-5.11-1.49-9.14-4.49-12.1c-3-2.95-6.65-4.43-10.96-4.43 c-5.03,0-9.14,1.82-12.34,5.45c-3.19,3.63-4.79,8.17-4.79,13.59v32.7H978.88z"></path> <path class="st1" d="M1075.54,153.4c-8.62,0-17.41-2.67-26.35-8.02v-14.25c3.04,2.56,6.99,4.91,11.86,7.07 c4.87,2.15,9.7,3.24,14.49,3.24c3.43,0,6.25-0.64,8.45-1.92c2.19-1.27,3.29-2.99,3.29-5.15c0-2.08-1.24-3.78-3.71-5.09 c-2.48-1.32-6.67-2.61-12.58-3.89c-7.83-1.68-13.59-3.93-17.31-6.77c-3.72-2.84-5.57-6.73-5.57-11.68 c0-5.91,2.47-10.56,7.43-13.95c4.95-3.39,11.06-5.09,18.32-5.09c7.91,0,16.05,2.32,24.44,6.95v12.7 c-8.79-5.19-16.93-7.78-24.44-7.78c-3.44,0-6.27,0.66-8.5,1.98c-2.24,1.32-3.35,3.05-3.35,5.21c0,0.56,0.08,1.08,0.24,1.56 c0.16,0.48,0.44,0.9,0.84,1.26s0.8,0.7,1.2,1.02c0.4,0.32,0.98,0.62,1.74,0.9c0.76,0.28,1.44,0.54,2.04,0.78 c0.6,0.24,1.44,0.48,2.52,0.72c1.08,0.24,1.99,0.46,2.75,0.66c0.76,0.2,1.84,0.44,3.23,0.72c1.4,0.28,2.53,0.54,3.41,0.78 c7.51,1.76,12.9,4.21,16.17,7.37c3.27,3.15,4.91,7.08,4.91,11.8c0,6.31-2.48,11.04-7.43,14.19 C1088.68,151.82,1082.65,153.4,1075.54,153.4z"></path> </g> </g> </svg> 